<svg width="101" height="43" viewBox="0 0 101 43" fill="none" xmlns="http://www.w3.org/2000/svg">
<path d="M0 43L7.01788 0H18.0082L24.8936 43H16.2867L15.095 34.4445H9.40131L8.27581 43H0ZM9.57132 31.0885H14.8331L12.3144 4.69662L9.57132 31.0885ZM18.0914 43V0H36.0995V3.04832H26.1023V19.4503H34.5768V22.5925H26.1023V39.8646H36.0995V43H18.0914ZM43.9558 43V3.04832H37.8647V0H57.7267V3.04832H51.6357V43H43.9558ZM59.4614 43V0H67.1413V19.6072H73.5633V0H81.2431V43H73.5633V22.357H67.1413V43H59.4614ZM82.9923 43V0H101V3.04832H91.0034V19.4503H99.4778V22.5925H91.0034V39.8646H101V43H82.9923Z" fill="#FF2400"/>
</svg>
